PathFileType	4	(X/Y/Z)	Patient4_TMGait_0pt8_01_left_15.trc.trc
DataRate	CameraRate	NumFrames	NumMarkers	Units	OrigDataRate	OrigDataStartFrame	OrigNumFrames
89.743589743590	89.743589743590	5	33	mm	89.743589743590	89	       141
Frame#	Time	Sacral			L.Shoulder			Chest			R.Shoulder			Neck			R.ASIS			L.ASIS			R.Thigh.Superior			R.Thigh.Lateral			R.Thigh.Inferior			R.Patella			L.Thigh.Superior			L.Thigh.Lateral			L.Thigh.Inferior			L.Patella			L.Shank.Superior			L.Shank.Lateral			L.Shank.Inferior			R.Shank.Superior			R.Shank.Lateral			R.Shank.Inferior			R.Heel			R.Midfoot.Superior			R.Midfoot.Lateral			R.Toe			L.Heel			L.Midfoot.Lateral			L.Midfoot.Superior			L.Toe			L.Elbow			L.Wrist			R.Elbow			R.Wrist			
		X1	Y1	Z1	X2	Y2	Z2	X3	Y3	Z3	X4	Y4	Z4	X5	Y5	Z5	X6	Y6	Z6	X7	Y7	Z7	X8	Y8	Z8	X9	Y9	Z9	X10	Y10	Z10	X11	Y11	Z11	X12	Y12	Z12	X13	Y13	Z13	X14	Y14	Z14	X15	Y15	Z15	X16	Y16	Z16	X17	Y17	Z17	X18	Y18	Z18	X19	Y19	Z19	X20	Y20	Z20	X21	Y21	Z21	X22	Y22	Z22	X23	Y23	Z23	X24	Y24	Z24	X25	Y25	Z25	X26	Y26	Z26	X27	Y27	Z27	X28	Y28	Z28	X29	Y29	Z29	X30	Y30	Z30	X31	Y31	Z31	X32	Y32	Z32	X33	Y33	Z33	

89	16.990571428571	914.624067048269	991.447102985767	468.104594854540	1092.895777615938	1429.559084168544	300.498088195882	1191.967591583294	1353.768876598856	461.751724739169	1103.486925253929	1421.356239849011	635.221451451466	1076.530296387126	1483.919089847700	456.776452506883	1145.072735517655	934.056061173131	586.858217548773	1128.772802337558	952.044214684048	308.425394479983	1213.901416992918	748.781065738538	562.645164674587	1145.618441040008	630.047442468659	616.466398613484	1235.926082603575	589.893560848834	542.191971074814	1250.325860641789	499.291144331031	549.080534233419	1171.737853567595	734.085555313868	333.204166514807	1085.724676185715	618.218277801137	266.678135728035	1173.956549448144	532.844111412707	323.420151963318	1163.152758904613	445.261820613993	319.376508969033	1086.699800302932	391.412101498768	314.158369668333	940.245789548861	367.982842034673	267.888035851902	911.175144463608	242.368967149377	324.376903200820	1223.507291202633	407.725480848158	553.686760938846	1152.815282646483	300.499037112009	609.924933236831	1202.606131676412	207.905070187217	549.765569130393	1076.816332504988	42.299153243788	510.387925711788	1244.814382549456	98.122416711893	557.728509132042	1155.225052675640	37.163134054273	591.073997261276	1363.064045011990	48.019468542491	593.013738419013	714.901064283139	204.291683133324	368.138442280298	762.797989156010	150.831541850919	286.544837968414	868.829784196567	144.903206969634	304.721031057457	930.433608475734	33.146345879068	274.658105981317	1131.230182574241	1099.518359835587	145.998814883417	1384.612463715129	1096.802111166389	173.052434662593	972.837298699740	1097.325479577553	733.303144981134	951.660544445815	838.121104057210	743.308667212622	
90	17.001714285714	914.040988873335	993.262740039354	471.587491356036	1090.934387341652	1430.872319948091	302.246293710764	1192.036049758947	1354.963086379659	462.250228819898	1105.970601034877	1422.626179395418	636.855370560496	1076.772177120613	1485.355557141741	458.751162783248	1145.174418666642	935.599292780031	588.636515087048	1127.152998046646	953.189156013790	310.157721994186	1211.136821882287	747.866338251062	565.123287176621	1141.065695753768	630.264116290476	618.191271905250	1230.445507925186	589.035484523439	543.433349697908	1243.335108165488	498.489054379786	549.906291389302	1176.150225648740	738.502632524173	335.487928455791	1095.157230341384	620.474989889955	267.630341283979	1186.032288330537	537.456372972535	324.575256036057	1177.175724096277	448.880739778307	319.983728194918	1099.724372913939	394.740302714882	314.848004937173	952.446402595632	374.853309587184	269.216180512758	920.755949863817	249.659116378267	325.330450754552	1216.120439203967	407.299050796210	554.534992773000	1145.166300823191	300.295847497365	610.530833336627	1194.318187705743	207.615001775078	550.063296353709	1067.904130990483	42.335511211664	510.514276545879	1236.093305761275	98.219274253881	558.015555996650	1146.299079883069	37.151760422294	591.171239081576	1354.215469569203	47.589756735838	593.188005395862	723.740161206884	217.823401682179	369.558413439001	769.671029765123	162.672029611132	287.732983183957	875.838919092557	152.524404907980	305.825888076386	932.858775054696	35.312412347234	275.165567547266	1121.364187222121	1097.535558570596	151.471104937042	1375.066475527299	1085.220716006091	176.229439498797	982.794262782366	1095.377757018906	737.570430735547	972.463772831922	835.320020995379	746.620881334188	
91	17.012857142857	913.387061480924	994.976266946532	475.009789800045	1088.757153874197	1432.048872908731	303.833774608976	1191.927929771782	1356.059290069827	462.550304565852	1108.362086428783	1423.784269387074	638.323456961450	1076.886998646663	1486.733566196158	460.535570537016	1145.166104903286	937.032267768780	590.294919227152	1125.374023429351	954.331083468376	311.956122699501	1208.160835544999	747.043390161761	567.146824816593	1136.524518854211	630.519119885949	619.868321211268	1224.819344635824	588.205691970119	544.514637101534	1236.172072054203	497.735847050199	550.677452676846	1180.188613951744	743.239902658816	337.671884326446	1104.093120636371	623.347494283355	268.467636438868	1197.467874946009	542.746348234546	325.533818276380	1190.759473701583	453.303297883849	320.362709625201	1112.690611121887	398.643747638687	315.347118139198	964.784363484010	381.308383112478	270.444965560304	931.369438348332	256.376060416577	326.287287847068	1208.650734020886	406.912594486490	555.316731045107	1137.501922598753	300.118687692055	611.166010525419	1186.005154933198	207.357791047007	550.336763601115	1058.959994719394	42.403593432354	510.647200736480	1227.354750389301	98.266322075414	558.244255255498	1137.353712321105	37.139931364390	591.261945957622	1345.362293361119	47.077063161036	593.332591496977	733.997413228627	228.796520895789	371.045242290836	778.521757828492	172.609026405557	289.002568746540	884.695349988956	159.589423884663	307.002562903886	938.470235460163	38.197821113518	275.786244382121	1111.365206311006	1095.658378508842	156.945474343789	1364.952759005086	1072.438035598057	179.344213057383	993.132683337604	1093.431889808172	741.743640003622	994.352272961047	832.944608790145	749.714168024670	
92	17.024000000000	912.699347608348	996.585654297841	478.369701992864	1086.422822407426	1433.112292503552	305.277977815574	1191.658914536801	1357.077093884426	462.690835180791	1110.632213323925	1424.864870652503	639.633422600040	1076.877842824252	1488.065584370620	462.132759979956	1145.063597566855	938.370054653908	591.864387735803	1123.487153673802	955.489705632972	313.858495679683	1205.030798723988	746.342633458338	568.751024417636	1131.991009326071	630.809655928529	621.494406325578	1219.081087857780	587.409726316656	545.474235062130	1228.876744630122	497.042837259204	551.402960208216	1183.832081026305	748.256399084690	339.737543718271	1112.444925021251	626.782612595269	269.210038037086	1208.207098593854	548.643259018378	326.241746181608	1203.820068238196	458.475078977405	320.461380467235	1125.539060137382	403.039879582184	315.624107574375	977.183445653852	387.143002691785	271.513121895960	943.017807453664	262.275070556930	327.190543973731	1201.131167505793	406.572541052815	556.049873499474	1129.817287491136	299.981200467975	611.833606242548	1177.675531356511	207.140643308316	550.604159551204	1049.991189627361	42.496998615080	510.789768012254	1218.582996193170	98.263024179134	558.427810128915	1128.396800024907	37.131840302924	591.353511009486	1336.501890922946	46.532171059099	593.456242279976	745.591214826801	236.865502245268	372.530849435111	789.318319444416	180.250877687148	290.290848988867	895.452423979624	165.742056487169	308.166235132934	947.427149087567	41.556464931545	276.483093449116	1101.329567456635	1093.920649507759	162.415576388499	1354.179001064887	1058.479306875412	182.377977017650	1003.888107691211	1091.522999250272	745.769345707227	1017.260395363482	831.135432376660	752.540664266716	
93	17.035142857143	912.005912370804	998.095919395245	481.662355649909	1083.984931872928	1434.087869869619	306.604131836194	1191.245206688982	1358.039020340668	462.716262503606	1112.752993187713	1425.905207748153	640.799272698386	1076.745345243248	1489.359894972207	463.558115075063	1144.882254533860	939.625765412404	593.368618415071	1121.544372289794	956.676462010585	315.872894397720	1201.791430141817	745.765568480287	569.998851490461	1127.438454727160	631.127626577670	623.060936695749	1213.243451513041	586.645344954827	546.347082872367	1221.470640087484	496.414316581461	552.085478579875	1187.072998673336	753.495819597831	341.665349861012	1120.153280276030	630.696283865573	269.871958008537	1218.217510625083	555.050261207688	326.663681731737	1216.293733373077	464.315438525714	320.264216135425	1138.223699618384	407.827397441934	315.674061271290	989.593650836661	392.173329513785	272.373676100802	955.692149639664	267.154059869893	327.989646836056	1193.572861572842	406.280966749169	556.747611398506	1122.094013910701	299.889890465143	612.529208710006	1169.329112326671	206.966703177543	550.878864401269	1041.003786047427	42.607394718918	510.940915389887	1209.768945431948	98.215620207888	558.583753916763	1119.434520061398	37.129413797698	591.449642315920	1327.631765200834	45.996657884589	593.565749179809	758.459405493922	241.839631163238	373.948379669797	802.002529566325	185.350565742547	291.527649484267	908.116466935221	170.684958307958	309.233595550961	959.741504195249	45.070435379689	277.187603349338	1091.358254601083	1092.355770440834	167.875016941963	1342.635507724832	1043.391404494088	185.321031842389	1015.081939184970	1089.700046548295	749.597858635462	1041.109829418263	830.038099332775	755.055526228653	
